<svg width="80" height="81" viewBox="0 0 80 81" fill="none" xmlns="http://www.w3.org/2000/svg">
<path d="M69.6305 44.015C68.5983 53.2076 60.7832 69.1326 39.696 70.0911C32.9882 70.0911 21.1181 67.2895 13.7454 54.5579H2.68639C6.74137 65.2251 17.8741 79.2332 39.696 80.1412C56.2121 80.4129 82.5327 67.2157 79.8035 33.6195H56.8757L58.2028 44.015H69.6305Z" fill="#F6F6F6"/>
<path d="M76.0447 22.7816C71.6211 13.6162 59.4561 3.38571e-05 39.696 0C24.657 -2.57677e-05 -1.88468 12.068 0.105924 44.015H26.5617V33.6195H10.6489C11.976 26.0502 20.468 10.446 39.696 10.1511C40.5807 10.1511 55.3261 9.65827 64.2471 22.7816H76.0447Z" fill="#F6F6F6"/>
<path d="M22.1215 39.6787C22.1215 39.6787 22.1522 58.4934 22.1522 64.147C27.0919 67.9304 32.4433 69.1095 32.4433 69.1095V62.0917V51.7699V39.6787C33.0235 32.6745 38.0431 31.0525 41.0659 31.0525C46.6691 31.0525 49.4005 36.2872 49.4005 39.6787V51.7699V62.0917V68.4003C49.4005 68.4003 56.1679 66.2467 59.7223 62.6119C59.7188 54.7792 59.7223 39.6787 59.7223 39.6787C58.9805 24.9331 47.9225 20.4021 41.0659 20.5833C27.2789 20.9477 21.7494 32.6745 22.1215 39.6787Z" fill="black"/>
<path d="M49.4005 51.7699H32.4433V62.0917H49.4005V51.7699Z" fill="black"/>
</svg>
