<svg width="340" height="362" viewBox="0 0 340 362" fill="none" xmlns="http://www.w3.org/2000/svg">
<path d="M275.929 157.354C272.239 190.217 244.3 247.149 168.913 250.576C144.933 250.576 102.497 240.56 76.1399 195.045H36.6038C51.1004 233.18 90.9001 283.259 168.913 286.505C227.958 287.476 322.054 240.296 312.297 120.19H230.331L235.075 157.354H275.929Z" fill="#2F2F2F"/>
<path d="M298.86 81.4444C283.045 48.678 239.556 0.000121039 168.913 1.47521e-10C115.149 -9.21195e-05 20.2623 43.143 27.3787 157.354H121.958V120.19H65.0698C69.8141 93.1293 100.173 37.3444 168.913 36.2901C172.076 36.2901 224.791 34.5283 256.683 81.4444H298.86Z" fill="#2F2F2F"/>
<path d="M106.085 141.851C106.085 141.851 106.194 209.114 106.194 229.326C123.854 242.851 142.985 247.067 142.985 247.067V221.978V185.078V141.851C145.059 116.812 163.004 111.013 173.811 111.013C193.842 111.013 203.607 129.727 203.607 141.851V185.078V221.978V244.531C203.607 244.531 227.801 236.832 240.507 223.838C240.495 195.836 240.507 141.851 240.507 141.851C237.856 89.1361 198.323 72.9376 173.811 73.5854C124.522 74.888 104.754 116.811 106.085 141.851Z" fill="#FA2230"/>
<path d="M203.607 185.078H142.985V221.978H203.607V185.078Z" fill="#FA2230"/>
<path d="M41.04 350H27.696V344.24H31.2L29.952 339.872H12.048L10.752 344.24H14.256V350H0.96V344.24H4.752L11.904 320.144H8.88V314.384H28.416L37.248 344.24H41.04V350ZM13.776 334.112H28.224L24.096 320.144H17.952L13.776 334.112ZM43.3931 314.384H64.4651C66.8651 314.384 69.1371 314.832 71.2811 315.728C73.4571 316.592 75.3771 317.824 77.0411 319.424C78.7051 320.992 80.0171 322.864 80.9771 325.04C81.9691 327.216 82.4651 329.584 82.4651 332.144C82.4651 334.544 82.0011 336.832 81.0731 339.008C80.1771 341.152 78.9291 343.04 77.3291 344.672C75.7291 346.304 73.8251 347.6 71.6171 348.56C69.4411 349.52 67.0571 350 64.4651 350H43.3931V344.24H47.1371V320.144H43.3931V314.384ZM64.4651 344.24C66.1611 344.24 67.7451 343.936 69.2171 343.328C70.7211 342.688 72.0171 341.824 73.1051 340.736C74.2251 339.648 75.1051 338.368 75.7451 336.896C76.3851 335.424 76.7051 333.84 76.7051 332.144C76.7051 330.48 76.3851 328.912 75.7451 327.44C75.1051 325.968 74.2251 324.704 73.1051 323.648C72.0171 322.56 70.7211 321.712 69.2171 321.104C67.7451 320.464 66.1611 320.144 64.4651 320.144H52.8971V344.24H64.4651ZM101.902 313.952C103.694 313.952 105.294 314.016 106.702 314.144C108.11 314.272 109.438 314.464 110.686 314.72C111.934 314.976 113.15 315.312 114.334 315.728C115.518 316.144 116.782 316.64 118.126 317.216V324.416H112.846L112.606 321.536C111.39 320.992 109.886 320.56 108.094 320.24C106.334 319.888 104.142 319.712 101.518 319.712C99.5661 319.712 97.9341 319.84 96.6221 320.096C95.3101 320.352 94.2541 320.672 93.4541 321.056C92.6861 321.44 92.1261 321.872 91.7741 322.352C91.4541 322.832 91.2941 323.296 91.2941 323.744C91.2941 324.224 91.3901 324.672 91.5821 325.088C91.8061 325.472 92.2701 325.84 92.9741 326.192C93.7101 326.512 94.7501 326.8 96.0941 327.056C97.4701 327.312 99.3101 327.52 101.614 327.68C104.878 327.904 107.63 328.272 109.87 328.784C112.142 329.264 113.982 329.952 115.39 330.848C116.798 331.712 117.822 332.8 118.462 334.112C119.102 335.392 119.422 336.928 119.422 338.72C119.422 340.288 119.006 341.776 118.174 343.184C117.342 344.592 116.142 345.824 114.574 346.88C113.006 347.936 111.086 348.784 108.814 349.424C106.542 350.032 103.95 350.336 101.038 350.336C99.0221 350.336 97.1021 350.128 95.2781 349.712C93.4861 349.296 91.8221 348.768 90.2861 348.128C88.7501 347.488 87.3741 346.784 86.1581 346.016C84.9741 345.216 83.9981 344.432 83.2301 343.664L87.0221 339.44C87.9181 340.144 88.8621 340.816 89.8541 341.456C90.8461 342.064 91.9181 342.608 93.0701 343.088C94.2221 343.536 95.4541 343.904 96.7661 344.192C98.1101 344.448 99.5341 344.576 101.038 344.576C103.278 344.576 105.182 344.4 106.75 344.048C108.35 343.696 109.646 343.248 110.638 342.704C111.63 342.128 112.35 341.488 112.798 340.784C113.278 340.08 113.518 339.392 113.518 338.72C113.518 338.048 113.342 337.44 112.99 336.896C112.638 336.32 112.014 335.824 111.118 335.408C110.222 334.96 109.006 334.592 107.47 334.304C105.934 334.016 103.982 333.776 101.614 333.584C98.3501 333.328 95.6461 332.96 93.5021 332.48C91.3581 332 89.6461 331.36 88.3661 330.56C87.0861 329.76 86.1901 328.816 85.6781 327.728C85.1661 326.608 84.9101 325.296 84.9101 323.792C84.9101 322.32 85.2941 320.976 86.0621 319.76C86.8301 318.544 87.9341 317.504 89.3741 316.64C90.8141 315.776 92.5901 315.12 94.7021 314.672C96.8141 314.192 99.2141 313.952 101.902 313.952ZM140.925 337.184V331.904H156.285V337.184H140.925Z" fill="#CA0013"/>
<path d="M217.29 350H203.946V344.24H207.45L206.202 339.872H188.298L187.002 344.24H190.506V350H177.21V344.24H181.002L188.154 320.144H185.13V314.384H204.666L213.498 344.24H217.29V350ZM190.026 334.112H204.474L200.346 320.144H194.202L190.026 334.112ZM252.169 320.144V332.288C252.169 335.04 251.785 337.536 251.017 339.776C250.249 342.016 249.129 343.936 247.657 345.536C246.217 347.104 244.441 348.32 242.329 349.184C240.217 350.016 237.833 350.432 235.177 350.432C232.617 350.432 230.281 350.016 228.169 349.184C226.089 348.32 224.297 347.104 222.793 345.536C221.321 343.936 220.169 342.016 219.337 339.776C218.537 337.536 218.137 335.024 218.137 332.24V320.144H214.393V314.384H227.689V320.144H223.897V332.24C223.897 334.064 224.105 335.744 224.521 337.28C224.969 338.816 225.657 340.128 226.585 341.216C227.513 342.304 228.681 343.152 230.089 343.76C231.497 344.368 233.193 344.672 235.177 344.672C237.289 344.672 239.049 344.368 240.457 343.76C241.897 343.152 243.049 342.304 243.913 341.216C244.809 340.128 245.449 338.816 245.833 337.28C246.217 335.744 246.409 334.064 246.409 332.24V320.144H242.617V314.384H255.961V320.144H252.169ZM263.595 324.416H258.315V314.384H296.955V324.416H291.675L291.195 320.144H280.491V344.24H284.283V350H270.939V344.24H274.731V320.144H264.075L263.595 324.416ZM298.442 332.24C298.442 329.392 298.986 326.848 300.074 324.608C301.162 322.336 302.618 320.432 304.442 318.896C306.266 317.328 308.362 316.128 310.73 315.296C313.13 314.464 315.61 314.048 318.17 314.048C320.858 314.048 323.386 314.464 325.754 315.296C328.154 316.128 330.25 317.328 332.042 318.896C333.834 320.432 335.258 322.336 336.314 324.608C337.37 326.848 337.898 329.392 337.898 332.24C337.898 334.992 337.37 337.488 336.314 339.728C335.258 341.968 333.834 343.888 332.042 345.488C330.25 347.056 328.154 348.272 325.754 349.136C323.386 350 320.858 350.432 318.17 350.432C315.61 350.432 313.13 350.016 310.73 349.184C308.362 348.32 306.266 347.104 304.442 345.536C302.618 343.936 301.162 342.016 300.074 339.776C298.986 337.536 298.442 335.024 298.442 332.24ZM318.17 319.808C316.186 319.808 314.346 320.112 312.65 320.72C310.986 321.328 309.53 322.176 308.282 323.264C307.066 324.352 306.106 325.664 305.402 327.2C304.698 328.736 304.346 330.416 304.346 332.24C304.346 334.064 304.698 335.744 305.402 337.28C306.106 338.816 307.066 340.128 308.282 341.216C309.53 342.304 310.986 343.152 312.65 343.76C314.346 344.368 316.186 344.672 318.17 344.672C320.282 344.672 322.186 344.368 323.882 343.76C325.578 343.152 327.018 342.304 328.202 341.216C329.418 340.128 330.346 338.816 330.986 337.28C331.658 335.744 331.994 334.064 331.994 332.24C331.994 330.416 331.658 328.736 330.986 327.2C330.346 325.664 329.418 324.352 328.202 323.264C327.018 322.176 325.578 321.328 323.882 320.72C322.186 320.112 320.282 319.808 318.17 319.808Z" fill="#2F2F2F"/>
</svg>
