<svg width="30" height="30" viewBox="0 0 30 30" xmlns="http://www.w3.org/2000/svg">
<path fill-rule="evenodd" clip-rule="evenodd" d="M15 3.75C11.9445 3.75 11.562 3.76275 10.362 3.8175C9.16425 3.87225 8.346 4.06275 7.6305 4.341C6.8805 4.623 6.20025 5.0655 5.63775 5.6385C5.06567 6.20035 4.62289 6.88012 4.34025 7.6305C4.0635 8.346 3.87225 9.165 3.8175 10.3628C3.7635 11.562 3.75 11.9438 3.75 15C3.75 18.0562 3.76275 18.438 3.8175 19.638C3.87225 20.8358 4.06275 21.654 4.341 22.3695C4.623 23.1195 5.0655 23.7997 5.6385 24.3622C6.20037 24.9343 6.88013 25.3771 7.6305 25.6597C8.346 25.9373 9.16425 26.1278 10.362 26.1825C11.562 26.2372 11.9445 26.25 15 26.25C18.0555 26.25 18.438 26.2372 19.638 26.1825C20.8358 26.1278 21.654 25.9373 22.3695 25.659C23.1195 25.377 23.7997 24.9345 24.3622 24.3615C24.9343 23.7997 25.3771 23.1199 25.6597 22.3695C25.9373 21.654 26.1278 20.8358 26.1825 19.638C26.2372 18.438 26.25 18.0555 26.25 15C26.25 11.9445 26.2372 11.562 26.1825 10.362C26.1278 9.16425 25.9373 8.346 25.659 7.6305C25.3766 6.8798 24.9338 6.19974 24.3615 5.63775C23.7997 5.06567 23.1199 4.62289 22.3695 4.34025C21.654 4.0635 20.835 3.87225 19.6373 3.8175C18.438 3.7635 18.0562 3.75 15 3.75ZM15 5.77725C18.0037 5.77725 18.36 5.7885 19.5465 5.8425C20.643 5.89275 21.2385 6.075 21.6353 6.23025C22.1602 6.4335 22.5352 6.678 22.929 7.071C23.3228 7.46475 23.5665 7.83975 23.7698 8.36475C23.9242 8.7615 24.1073 9.357 24.1575 10.4535C24.2115 11.64 24.2228 11.9963 24.2228 15C24.2228 18.0037 24.2115 18.36 24.1575 19.5465C24.1073 20.643 23.925 21.2385 23.7698 21.6353C23.5897 22.1239 23.3024 22.566 22.929 22.929C22.5661 23.3025 22.124 23.5898 21.6353 23.7698C21.2385 23.9242 20.643 24.1073 19.5465 24.1575C18.36 24.2115 18.0045 24.2228 15 24.2228C11.9955 24.2228 11.64 24.2115 10.4535 24.1575C9.357 24.1073 8.7615 23.925 8.36475 23.7698C7.87609 23.5897 7.434 23.3024 7.071 22.929C6.69763 22.566 6.41035 22.1239 6.23025 21.6353C6.07575 21.2385 5.89275 20.643 5.8425 19.5465C5.7885 18.36 5.77725 18.0037 5.77725 15C5.77725 11.9963 5.7885 11.64 5.8425 10.4535C5.89275 9.357 6.075 8.7615 6.23025 8.36475C6.4335 7.83975 6.678 7.46475 7.071 7.071C7.43396 6.69753 7.87606 6.41023 8.36475 6.23025C8.7615 6.07575 9.357 5.89275 10.4535 5.8425C11.64 5.7885 11.9963 5.77725 15 5.77725Z" />
<path fill-rule="evenodd" clip-rule="evenodd" d="M15.0012 18.7542C14.5083 18.7542 14.0202 18.6571 13.5648 18.4685C13.1093 18.2798 12.6955 18.0033 12.3469 17.6548C11.9984 17.3062 11.7219 16.8924 11.5332 16.437C11.3446 15.9815 11.2475 15.4934 11.2475 15.0005C11.2475 14.5075 11.3446 14.0194 11.5332 13.564C11.7219 13.1085 11.9984 12.6947 12.3469 12.3462C12.6955 11.9976 13.1093 11.7211 13.5648 11.5325C14.0202 11.3438 14.5083 11.2467 15.0012 11.2467C15.9968 11.2467 16.9516 11.6422 17.6556 12.3462C18.3595 13.0501 18.755 14.0049 18.755 15.0005C18.755 15.996 18.3595 16.9508 17.6556 17.6548C16.9516 18.3587 15.9968 18.7542 15.0012 18.7542ZM15.0012 9.21797C13.4676 9.21797 11.9968 9.82719 10.9124 10.9116C9.82798 11.9961 9.21875 13.4669 9.21875 15.0005C9.21875 16.5341 9.82798 18.0049 10.9124 19.0893C11.9968 20.1737 13.4676 20.783 15.0012 20.783C16.5349 20.783 18.0057 20.1737 19.0901 19.0893C20.1745 18.0049 20.7837 16.5341 20.7837 15.0005C20.7837 13.4669 20.1745 11.9961 19.0901 10.9116C18.0057 9.82719 16.5349 9.21797 15.0012 9.21797ZM22.466 9.11297C22.466 9.47549 22.322 9.82316 22.0656 10.0795C21.8093 10.3358 21.4616 10.4798 21.0991 10.4798C20.7366 10.4798 20.3889 10.3358 20.1326 10.0795C19.8763 9.82316 19.7322 9.47549 19.7322 9.11297C19.7322 8.75045 19.8763 8.40278 20.1326 8.14644C20.3889 7.8901 20.7366 7.74609 21.0991 7.74609C21.4616 7.74609 21.8093 7.8901 22.0656 8.14644C22.322 8.40278 22.466 8.75045 22.466 9.11297Z" />
</svg>
