<svg width="300" height="300" viewBox="0 0 300 300" fill="none" xmlns="http://www.w3.org/2000/svg">
<g clip-path="url(#clip0_1_2)">
<path d="M300 150C300 232.843 232.843 300 150 300C67.1574 300 0 232.843 0 150C0 67.1574 67.1574 0 150 0C232.843 0 300 67.1574 300 150Z" fill="#FFCA3C"/>
<path d="M148.499 92.4C142.699 92.4 138.199 90.8001 134.999 87.6C131.799 84.3999 130.199 79.8999 130.199 74.1C130.199 68.9001 131.799 64.8 134.999 61.8C138.399 58.5999 142.899 57 148.499 57C154.099 57 158.399 58.5 161.399 61.5C164.399 64.5 165.899 68.7 165.899 74.1C165.899 79.8999 164.399 84.3999 161.399 87.6C158.399 90.8001 154.099 92.4 148.499 92.4ZM119.699 240.9C119.099 240.9 118.799 240.3 118.799 239.1C118.799 237.9 119.099 237.3 119.699 237.3C125.899 237.3 130.099 235.9 132.299 233.1C134.499 230.1 135.599 224.6 135.599 216.6V162.9C135.599 156.1 134.899 151.2 133.499 148.2C132.099 145.2 129.799 143.7 126.599 143.7C123.999 143.7 120.299 144.8 115.499 147H115.199C114.399 147 113.799 146.5 113.399 145.5C112.999 144.3 113.099 143.6 113.699 143.4L158.999 122.4L159.899 122.1C160.899 122.1 161.899 122.6 162.899 123.6C163.899 124.6 164.399 125.5 164.399 126.3V132.9C163.999 140.9 163.799 150.7 163.799 162.3V216.6C163.799 224.6 164.899 230.1 167.099 233.1C169.499 235.9 173.799 237.3 179.999 237.3C180.599 237.3 180.899 237.9 180.899 239.1C180.899 240.3 180.599 240.9 179.999 240.9C174.799 240.9 170.699 240.8 167.699 240.6L149.699 240.3L131.999 240.6C128.999 240.8 124.899 240.9 119.699 240.9Z" fill="black"/>
</g>
<defs>
<clipPath id="clip0_1_2">
<rect width="300" height="300" fill="white"/>
</clipPath>
</defs>
</svg>
