<svg width="134" height="30" viewBox="0 0 134 30" fill="none" xmlns="http://www.w3.org/2000/svg">
<path fill-rule="evenodd" clip-rule="evenodd" d="M20.1312 0.587015H16.0566V11.0497H4.07458V0.587015H0V24.7238H4.07458V14.8481H16.0566V24.7238H20.1312V0.587015ZM34.3351 20.3729C33.5754 20.9254 32.5395 21.2017 31.2273 21.2017C28.8087 21.2017 26.4682 20.3022 24.206 18.5032C24.0136 18.3503 23.8219 18.1908 23.6306 18.0249L21.0754 21.0981C23.999 23.6994 27.3484 25 31.1237 25C33.702 25 35.7853 24.3439 37.3737 23.0318C38.9621 21.7196 39.7563 20.0161 39.7563 17.9213C39.7563 15.8034 39.1233 14.2035 37.8572 13.1215C36.6141 12.0396 34.7494 11.1994 32.2632 10.6008C29.8001 10.0023 28.1887 9.44981 27.429 8.94337C26.6693 8.4139 26.2895 7.66575 26.2895 6.69889C26.2895 5.70902 26.6693 4.97238 27.429 4.48895C28.1887 4.00552 29.1555 3.76381 30.3295 3.76381C31.5266 3.76381 32.7352 3.97099 33.9552 4.38536C34.8362 4.68455 35.5851 5.04374 36.202 5.46295C36.4395 5.62433 36.6574 5.79459 36.8558 5.97376L39.0312 2.90055C37.9262 1.97974 36.6141 1.26611 35.0947 0.759669C33.5754 0.253223 32.0446 0 30.5022 0C28.1081 0 26.0938 0.610037 24.4594 1.83011C22.848 3.02716 22.0423 4.74217 22.0423 6.97514C22.0423 9.2081 22.7559 10.8656 24.1831 11.9475C24.8968 12.523 25.714 12.9949 26.6348 13.3633C27.5556 13.7086 28.9023 14.0999 30.6749 14.5373C32.4474 14.9517 33.6905 15.4236 34.4041 15.953C35.1408 16.4595 35.5091 17.1846 35.5091 18.1285C35.5091 19.0493 35.1178 19.7974 34.3351 20.3729ZM34.886 15.2787C35.8538 15.9495 36.3378 16.9349 36.3378 18.1285C36.3378 19.3294 35.8074 20.319 34.826 21.0406L34.8225 21.0432C33.8748 21.7324 32.647 22.0304 31.2273 22.0304C28.6027 22.0304 26.1029 21.0563 23.7391 19.1906L22.237 20.9973C24.8643 23.1214 27.8182 24.1713 31.1237 24.1713C33.5591 24.1713 35.4404 23.554 36.8459 22.3929C38.2401 21.2412 38.9276 19.7737 38.9276 17.9213C38.9276 15.9748 38.3528 14.6352 37.3188 13.7516L37.3131 13.7467C36.2109 12.7874 34.4907 11.9895 32.0693 11.4065L32.0676 11.4061C30.822 11.1035 29.7768 10.8089 28.9385 10.5215C28.1128 10.2384 27.4392 9.9462 26.9693 9.63291L26.9622 9.62816L26.9551 9.62326C25.9617 8.93088 25.4608 7.92257 25.4608 6.69889C25.4608 5.45918 25.9584 4.44248 26.9841 3.78978C27.9115 3.19959 29.045 2.93508 30.3295 2.93508C31.6239 2.93508 32.9224 3.15936 34.2217 3.60065C35.1606 3.91951 35.9854 4.31164 36.6809 4.78642L37.8952 3.07103C37.0099 2.44178 35.9912 1.93206 34.8327 1.54587C33.3946 1.0665 31.9521 0.828729 30.5022 0.828729C28.2546 0.828729 26.4226 1.39877 24.9551 2.49421L24.9536 2.49537C23.5785 3.51687 22.871 4.97041 22.871 6.97514C22.871 9.01966 23.5138 10.4002 24.6838 11.2871L24.6937 11.2946L24.7034 11.3024C25.3456 11.8204 26.0873 12.2508 26.9342 12.5905C27.8085 12.9176 29.1137 13.2984 30.8685 13.7315C32.6491 14.1481 34.0279 14.6469 34.886 15.2787ZM19.3025 23.895V1.41574H16.8854V11.8785H3.24586V1.41574H0.828729V23.895H3.24586V14.0193H16.8854V23.895H19.3025ZM58.7072 4.3795L58.7039 4.37648C56.5808 2.44257 53.4823 1.41574 49.2827 1.41574H41.8241V23.895H49.0064C53.5434 23.895 56.7478 22.8268 58.7887 20.8483C60.8529 18.8474 61.9208 16.1095 61.9208 12.5345C61.9208 8.96614 60.8233 6.28609 58.7072 4.3795ZM44.2412 3.5221H49.1446C52.412 3.5221 55.0173 4.23256 56.8114 5.79827C58.627 7.38279 59.4691 9.71638 59.4691 12.6381C59.4691 15.5169 58.6342 17.8316 56.8457 19.436L56.8452 19.4364C55.0983 21.0008 52.6374 21.7196 49.5935 21.7196H44.2412V3.5221ZM49.5935 20.8909C52.517 20.8909 54.75 20.2003 56.2923 18.8191C57.8577 17.4148 58.6404 15.3545 58.6404 12.6381C58.6404 7.11326 55.4751 4.35083 49.1446 4.35083H45.07V20.8909H49.5935ZM59.262 3.76381C56.9369 1.64595 53.6105 0.587015 49.2827 0.587015H40.9954V24.7238H49.0064C53.6565 24.7238 57.1096 23.6303 59.3655 21.4434C61.6215 19.2564 62.7495 16.2868 62.7495 12.5345C62.7495 8.78223 61.587 5.85865 59.262 3.76381Z" fill="white"/>
<path d="M68.3281 25C68.2917 25 68.2734 24.9818 68.2734 24.9453V24.7812C68.2734 24.7448 68.2917 24.7266 68.3281 24.7266H68.4922C68.8841 24.7266 69.2259 24.6445 69.5176 24.4805C69.6361 24.4121 69.734 24.3073 69.8115 24.166C69.889 24.0202 69.9277 23.8584 69.9277 23.6807V16.4482C69.9277 16.1657 69.7454 15.9492 69.3809 15.7988C69.1257 15.6895 68.8545 15.6348 68.5674 15.6348H68.417C68.3805 15.6348 68.3623 15.6165 68.3623 15.5801V15.416C68.3623 15.3796 68.3805 15.3613 68.417 15.3613H73.0449C73.0814 15.3613 73.0996 15.3796 73.0996 15.416V15.5801C73.0996 15.6165 73.0814 15.6348 73.0449 15.6348H72.751C72.2816 15.6348 71.8669 15.7008 71.5068 15.833C71.402 15.8695 71.3337 15.931 71.3018 16.0176C71.2744 16.0996 71.2607 16.2432 71.2607 16.4482V24.0293C71.2699 24.1068 71.3109 24.1797 71.3838 24.248C71.4567 24.3164 71.5387 24.3506 71.6299 24.3506H74.3301C74.7357 24.3506 75.1344 24.1113 75.5264 23.6328C75.6312 23.5052 75.7611 23.3366 75.916 23.127C76.071 22.9128 76.1667 22.792 76.2031 22.7646C76.349 22.6553 76.4219 22.6576 76.4219 22.7715C76.4219 22.7988 76.415 22.8262 76.4014 22.8535L75.3691 24.877C75.3281 24.959 75.2803 25 75.2256 25H68.3281ZM81.1797 23.8721C81.1797 23.9906 81.2344 24.0863 81.3438 24.1592C81.4577 24.2275 81.5876 24.2617 81.7334 24.2617C81.8792 24.2617 82 24.2253 82.0957 24.1523C82.196 24.0749 82.2643 24.0361 82.3008 24.0361C82.3372 24.0361 82.3555 24.0863 82.3555 24.1865C82.3555 24.2822 82.3099 24.3643 82.2188 24.4326C81.5352 24.9339 81.0726 25.1846 80.8311 25.1846C80.5394 25.1846 80.3024 24.8815 80.1201 24.2754C80.1064 24.2298 80.0951 24.2093 80.0859 24.2139C79.5208 24.6377 79.1654 24.8929 79.0195 24.9795C78.6458 25.1937 78.2699 25.2279 77.8916 25.082C77.5179 24.9362 77.2467 24.6947 77.0781 24.3574C76.9961 24.1842 76.9551 23.9997 76.9551 23.8037C76.9551 23.4163 77.0986 23.1087 77.3857 22.8809C77.6729 22.653 78.2197 22.4342 79.0264 22.2246C79.2998 22.1517 79.5436 22.0583 79.7578 21.9443C79.972 21.8304 80.0837 21.7575 80.0928 21.7256C80.1064 21.6937 80.1133 21.6641 80.1133 21.6367V20.3242C80.1133 19.8092 79.9128 19.4469 79.5117 19.2373C79.3796 19.1689 79.2201 19.1348 79.0332 19.1348C78.8509 19.1348 78.6641 19.2077 78.4727 19.3535C78.2858 19.4993 78.1924 19.7067 78.1924 19.9756L78.2266 20.2422C78.1992 20.2969 78.0352 20.388 77.7344 20.5156C77.4336 20.6432 77.2604 20.7116 77.2148 20.7207C77.1419 20.7207 77.1055 20.6341 77.1055 20.4609C77.1055 20.2832 77.1579 20.0872 77.2627 19.873C77.3675 19.6589 77.5156 19.4629 77.707 19.2852C78.1536 18.8704 78.6641 18.6631 79.2383 18.6631C79.8125 18.6631 80.2796 18.8226 80.6396 19.1416C80.9997 19.4561 81.1797 19.832 81.1797 20.2695V23.8721ZM78.0283 23.6738C78.0283 23.8926 78.1126 24.084 78.2812 24.248C78.4499 24.4076 78.6413 24.4873 78.8555 24.4873C79.0742 24.4873 79.3385 24.3962 79.6484 24.2139C79.9583 24.027 80.1133 23.8356 80.1133 23.6396V22.252C80.1133 22.2018 80.1019 22.1768 80.0791 22.1768C80.0563 22.1768 80.0404 22.179 80.0312 22.1836L78.4453 22.9219C78.2812 23.0404 78.1696 23.1406 78.1104 23.2227C78.0557 23.3047 78.0283 23.4551 78.0283 23.6738ZM84.6797 19.2783C84.6797 19.4196 84.7116 19.4902 84.7754 19.4902C84.8438 19.4902 85.1354 19.3421 85.6504 19.0459C86.252 18.7907 86.71 18.6631 87.0244 18.6631C87.3389 18.6631 87.6396 18.7542 87.9268 18.9365C88.2139 19.1188 88.4577 19.3581 88.6582 19.6543C89.082 20.265 89.2939 21.0055 89.2939 21.876C89.2939 22.7464 88.9909 23.5166 88.3848 24.1865C87.7832 24.8519 86.988 25.1846 85.999 25.1846C85.3564 25.1846 84.764 25.1071 84.2217 24.9521C84.0622 24.9066 83.9255 24.8701 83.8115 24.8428C83.7021 24.8154 83.6406 24.7881 83.627 24.7607C83.6178 24.7288 83.6133 24.6924 83.6133 24.6514V15.4365C83.6133 15.2451 83.5085 15.113 83.2988 15.04C83.2077 15.0081 83.1097 14.9831 83.0049 14.9648C82.9001 14.9421 82.8158 14.9215 82.752 14.9033C82.6927 14.8851 82.654 14.8691 82.6357 14.8555C82.6221 14.8372 82.6152 14.8031 82.6152 14.7529C82.6152 14.6982 82.6494 14.6527 82.7178 14.6162L84.4609 13.7959C84.5156 13.7686 84.5498 13.7549 84.5635 13.7549C84.641 13.7549 84.6797 13.8096 84.6797 13.9189V19.2783ZM86.1289 19.4971C85.7233 19.4971 85.2676 19.6429 84.7617 19.9346C84.707 19.9665 84.6797 20.0212 84.6797 20.0986V23.332C84.7253 23.7467 84.9053 24.0703 85.2197 24.3027C85.5342 24.5352 85.8783 24.6514 86.252 24.6514C86.9082 24.6514 87.4141 24.3916 87.7695 23.8721C88.1296 23.3525 88.3096 22.7601 88.3096 22.0947C88.3096 21.4294 88.1273 20.8301 87.7627 20.2969C87.3981 19.7637 86.8535 19.4971 86.1289 19.4971ZM90.5654 21.9307C90.5654 21.0329 90.8822 20.2627 91.5156 19.6201C92.1536 18.973 92.917 18.6494 93.8057 18.6494C94.6943 18.6494 95.4668 18.9639 96.123 19.5928C96.7793 20.2171 97.1074 20.9896 97.1074 21.9102C97.1074 22.8307 96.7952 23.6077 96.1709 24.2412C95.5511 24.8701 94.7718 25.1846 93.833 25.1846C92.8942 25.1846 92.1149 24.8656 91.4951 24.2275C90.8753 23.5895 90.5654 22.8239 90.5654 21.9307ZM92.2676 23.6875C92.7142 24.4395 93.3226 24.8154 94.0928 24.8154C94.6898 24.8154 95.1455 24.5762 95.46 24.0977C95.779 23.6191 95.9385 23.0312 95.9385 22.334C95.9385 21.6367 95.7152 20.9212 95.2686 20.1875C94.8265 19.4538 94.2295 19.0869 93.4775 19.0869C92.9261 19.0869 92.4909 19.3262 92.1719 19.8047C91.8574 20.2786 91.7002 20.8825 91.7002 21.6162C91.7002 22.3454 91.8893 23.0358 92.2676 23.6875ZM102.262 20.0986C102.207 20.0895 102.127 20.0599 102.022 20.0098C101.644 19.8366 101.348 19.75 101.134 19.75C100.92 19.75 100.694 19.8844 100.457 20.1533C100.225 20.4176 100.108 20.6569 100.108 20.8711V23.9609C100.108 24.3027 100.307 24.5306 100.703 24.6445C100.876 24.6901 101.038 24.7243 101.188 24.7471C101.339 24.7653 101.435 24.7835 101.476 24.8018C101.521 24.82 101.544 24.8564 101.544 24.9111C101.544 24.9613 101.521 24.9909 101.476 25H98.0508C98.0052 24.9909 97.9824 24.959 97.9824 24.9043C97.9824 24.8223 98.0895 24.7676 98.3037 24.7402C98.7959 24.6673 99.042 24.4076 99.042 23.9609V20.3447C99.042 20.1533 98.9372 20.0212 98.7275 19.9482C98.6364 19.9163 98.5384 19.8913 98.4336 19.873C98.3288 19.8503 98.2445 19.8298 98.1807 19.8115C98.1214 19.7933 98.0827 19.7773 98.0645 19.7637C98.0508 19.7454 98.0439 19.7113 98.0439 19.6611C98.0439 19.6064 98.0781 19.5609 98.1465 19.5244L99.8896 18.7041C99.9443 18.6768 99.9785 18.6631 99.9922 18.6631C100.07 18.6631 100.108 18.7178 100.108 18.8271V19.9346C100.108 19.9893 100.122 20.0166 100.149 20.0166C100.186 20.0166 100.279 19.9095 100.43 19.6953C100.863 19.0892 101.22 18.7861 101.503 18.7861C101.662 18.7861 101.906 18.8499 102.234 18.9775C102.567 19.1051 102.733 19.2122 102.733 19.2988C102.733 19.4036 102.681 19.5632 102.576 19.7773C102.471 19.9915 102.367 20.0986 102.262 20.0986ZM107.443 23.8721C107.443 23.9906 107.498 24.0863 107.607 24.1592C107.721 24.2275 107.851 24.2617 107.997 24.2617C108.143 24.2617 108.264 24.2253 108.359 24.1523C108.46 24.0749 108.528 24.0361 108.564 24.0361C108.601 24.0361 108.619 24.0863 108.619 24.1865C108.619 24.2822 108.574 24.3643 108.482 24.4326C107.799 24.9339 107.336 25.1846 107.095 25.1846C106.803 25.1846 106.566 24.8815 106.384 24.2754C106.37 24.2298 106.359 24.2093 106.35 24.2139C105.785 24.6377 105.429 24.8929 105.283 24.9795C104.91 25.1937 104.534 25.2279 104.155 25.082C103.782 24.9362 103.51 24.6947 103.342 24.3574C103.26 24.1842 103.219 23.9997 103.219 23.8037C103.219 23.4163 103.362 23.1087 103.649 22.8809C103.937 22.653 104.483 22.4342 105.29 22.2246C105.563 22.1517 105.807 22.0583 106.021 21.9443C106.236 21.8304 106.347 21.7575 106.356 21.7256C106.37 21.6937 106.377 21.6641 106.377 21.6367V20.3242C106.377 19.8092 106.176 19.4469 105.775 19.2373C105.643 19.1689 105.484 19.1348 105.297 19.1348C105.115 19.1348 104.928 19.2077 104.736 19.3535C104.549 19.4993 104.456 19.7067 104.456 19.9756L104.49 20.2422C104.463 20.2969 104.299 20.388 103.998 20.5156C103.697 20.6432 103.524 20.7116 103.479 20.7207C103.406 20.7207 103.369 20.6341 103.369 20.4609C103.369 20.2832 103.422 20.0872 103.526 19.873C103.631 19.6589 103.779 19.4629 103.971 19.2852C104.417 18.8704 104.928 18.6631 105.502 18.6631C106.076 18.6631 106.543 18.8226 106.903 19.1416C107.263 19.4561 107.443 19.832 107.443 20.2695V23.8721ZM104.292 23.6738C104.292 23.8926 104.376 24.084 104.545 24.248C104.714 24.4076 104.905 24.4873 105.119 24.4873C105.338 24.4873 105.602 24.3962 105.912 24.2139C106.222 24.027 106.377 23.8356 106.377 23.6396V22.252C106.377 22.2018 106.366 22.1768 106.343 22.1768C106.32 22.1768 106.304 22.179 106.295 22.1836L104.709 22.9219C104.545 23.0404 104.433 23.1406 104.374 23.2227C104.319 23.3047 104.292 23.4551 104.292 23.6738ZM110.937 19.7432C110.909 19.7432 110.896 19.7637 110.896 19.8047V23.5781C110.896 23.8516 110.955 24.0658 111.073 24.2207C111.196 24.3757 111.351 24.4531 111.538 24.4531C111.725 24.4531 111.887 24.4235 112.023 24.3643C112.165 24.3005 112.285 24.2321 112.386 24.1592C112.491 24.0863 112.584 24.0202 112.666 23.9609C112.748 23.8971 112.821 23.8652 112.885 23.8652C112.949 23.8652 112.98 23.8812 112.98 23.9131C112.98 24.0225 112.969 24.0931 112.946 24.125C112.399 24.8314 111.871 25.1846 111.36 25.1846C110.854 25.1846 110.472 25.0251 110.212 24.7061C109.957 24.3825 109.829 23.9974 109.829 23.5508V19.7432H109.316C109.189 19.7432 109.12 19.7021 109.111 19.6201C109.107 19.5381 109.12 19.4857 109.152 19.4629C109.394 19.3079 109.727 19.0299 110.15 18.6289C110.196 18.5788 110.257 18.5036 110.335 18.4033C110.412 18.3031 110.524 18.1663 110.67 17.9932C110.82 17.82 110.934 17.7334 111.012 17.7334C111.089 17.7334 111.128 17.7653 111.128 17.8291C111.128 17.8382 111.05 18.1367 110.896 18.7246C110.896 18.8066 110.932 18.8499 111.005 18.8545H112.748C112.949 18.8545 113.049 19.137 113.049 19.7021C113.049 19.7295 113.031 19.7432 112.994 19.7432H110.937ZM113.739 21.9307C113.739 21.0329 114.056 20.2627 114.689 19.6201C115.327 18.973 116.091 18.6494 116.979 18.6494C117.868 18.6494 118.641 18.9639 119.297 19.5928C119.953 20.2171 120.281 20.9896 120.281 21.9102C120.281 22.8307 119.969 23.6077 119.345 24.2412C118.725 24.8701 117.946 25.1846 117.007 25.1846C116.068 25.1846 115.289 24.8656 114.669 24.2275C114.049 23.5895 113.739 22.8239 113.739 21.9307ZM115.441 23.6875C115.888 24.4395 116.496 24.8154 117.267 24.8154C117.864 24.8154 118.319 24.5762 118.634 24.0977C118.953 23.6191 119.112 23.0312 119.112 22.334C119.112 21.6367 118.889 20.9212 118.442 20.1875C118 19.4538 117.403 19.0869 116.651 19.0869C116.1 19.0869 115.665 19.3262 115.346 19.8047C115.031 20.2786 114.874 20.8825 114.874 21.6162C114.874 22.3454 115.063 23.0358 115.441 23.6875ZM125.436 20.0986C125.381 20.0895 125.301 20.0599 125.196 20.0098C124.818 19.8366 124.522 19.75 124.308 19.75C124.093 19.75 123.868 19.8844 123.631 20.1533C123.398 20.4176 123.282 20.6569 123.282 20.8711V23.9609C123.282 24.3027 123.48 24.5306 123.877 24.6445C124.05 24.6901 124.212 24.7243 124.362 24.7471C124.513 24.7653 124.608 24.7835 124.649 24.8018C124.695 24.82 124.718 24.8564 124.718 24.9111C124.718 24.9613 124.695 24.9909 124.649 25H121.225C121.179 24.9909 121.156 24.959 121.156 24.9043C121.156 24.8223 121.263 24.7676 121.478 24.7402C121.97 24.6673 122.216 24.4076 122.216 23.9609V20.3447C122.216 20.1533 122.111 20.0212 121.901 19.9482C121.81 19.9163 121.712 19.8913 121.607 19.873C121.503 19.8503 121.418 19.8298 121.354 19.8115C121.295 19.7933 121.257 19.7773 121.238 19.7637C121.225 19.7454 121.218 19.7113 121.218 19.6611C121.218 19.6064 121.252 19.5609 121.32 19.5244L123.063 18.7041C123.118 18.6768 123.152 18.6631 123.166 18.6631C123.243 18.6631 123.282 18.7178 123.282 18.8271V19.9346C123.282 19.9893 123.296 20.0166 123.323 20.0166C123.36 20.0166 123.453 19.9095 123.604 19.6953C124.036 19.0892 124.394 18.7861 124.677 18.7861C124.836 18.7861 125.08 18.8499 125.408 18.9775C125.741 19.1051 125.907 19.2122 125.907 19.2988C125.907 19.4036 125.855 19.5632 125.75 19.7773C125.645 19.9915 125.54 20.0986 125.436 20.0986ZM133.064 18.8477C133.115 18.8613 133.14 18.8932 133.14 18.9434C133.14 18.9935 133.135 19.0277 133.126 19.0459C133.117 19.0596 133.094 19.0732 133.058 19.0869C133.026 19.096 132.978 19.1051 132.914 19.1143C132.855 19.1234 132.759 19.1416 132.627 19.1689C132.495 19.1917 132.376 19.2829 132.271 19.4424C132.167 19.6019 132.055 19.8229 131.937 20.1055L128.724 28.0693L128.279 29.0127C128.165 29.2542 127.926 29.375 127.562 29.375C127.402 29.375 127.274 29.3226 127.179 29.2178C127.083 29.113 127.035 28.9876 127.035 28.8418C127.035 28.7005 127.069 28.5957 127.138 28.5273C127.211 28.4635 127.295 28.4111 127.391 28.3701C127.486 28.3291 127.584 28.2904 127.685 28.2539C127.789 28.222 127.906 28.1445 128.033 28.0215C128.161 27.903 128.236 27.8141 128.259 27.7549C129.024 26.0413 129.407 25.1458 129.407 25.0684C129.407 24.9909 129.362 24.8952 129.271 24.7812L127.015 20.0713C126.846 19.611 126.557 19.3148 126.146 19.1826C126.115 19.1735 126.076 19.1667 126.03 19.1621C125.839 19.1439 125.743 19.0869 125.743 18.9912C125.743 18.8955 125.798 18.8477 125.907 18.8477H128.949C128.986 18.8477 129.004 18.8841 129.004 18.957C129.004 19.0254 128.972 19.0732 128.908 19.1006C128.844 19.1234 128.703 19.1348 128.484 19.1348C128.133 19.1348 127.958 19.2715 127.958 19.5449L128.02 19.709L129.79 23.5029C129.881 23.7354 129.972 23.7285 130.063 23.4824C130.073 23.4596 130.13 23.3115 130.234 23.0381C130.854 21.4658 131.201 20.5566 131.273 20.3105C131.351 20.0645 131.39 19.8799 131.39 19.7568C131.39 19.6338 131.324 19.5039 131.191 19.3672C131.064 19.2305 130.886 19.1621 130.658 19.1621C130.435 19.1621 130.323 19.096 130.323 18.9639C130.323 18.8864 130.373 18.8477 130.474 18.8477H133.064Z" fill="white"/>
</svg>
